HIERARCHY
ROOT Hips
{
	OFFSET 0.00000 0.00000 0.00000
	CHANNELS 6 Xposition Yposition Zposition Yrotation Zrotation Xrotation 
	JOINT Lumbar
	{
		OFFSET 0 0 0
		CHANNELS 3 Zrotation Xrotation Yrotation
		JOINT Neck
		{
			OFFSET 0.00 0.2701 0.00
			CHANNELS 3 Zrotation Xrotation Yrotation
			End Site
			{
				OFFSET 0.00 0.1379 0.00
			}
		}
		JOINT RightShoulder
		{
			OFFSET 0.0119 0.2289 0.1181
			CHANNELS 3 Zrotation Xrotation Yrotation
			JOINT RightElbow
			{
				OFFSET 0.00 -0.1475 0.00
				CHANNELS 2 Zrotation Yrotation
				JOINT RightWrist
				{
					OFFSET 0.00 -0.1605 0.00
					CHANNELS 2 Zrotation Xrotation
					End Site
					{
						OFFSET 0.0040 -0.1068 0.0006
					}
				}
			}
		}
		JOINT LeftShoulder
		{
			OFFSET 0.0119 0.2289 -0.1181
			CHANNELS 3 Zrotation Xrotation Yrotation
			JOINT LeftElbow
			{
				OFFSET 0.00 -0.1475 0.00
				CHANNELS 2 Zrotation Yrotation
				JOINT LeftWrist
				{
					OFFSET 0.00 -0.1605 0.00
					CHANNELS 2 Zrotation Xrotation
					End Site
					{
						OFFSET 0.0040 -0.1068 -0.0006
					}
				}
			}
		}
	}
	JOINT RightHip
	{
		OFFSET 0.0316 -0.0424 0.0458
		CHANNELS 3 Zrotation Xrotation Yrotation
		JOINT RightKnee
		{
			OFFSET 0.00 -0.2438 0.00
			CHANNELS 1 Zrotation
			JOINT RightAnkle
			{
				OFFSET 0.00 -0.2449 0.00
				CHANNELS 3 Zrotation Xrotation Yrotation
				End Site
				{
					OFFSET 0.1237 -0.0542 0.0051
				}
			}
		}
	}
	JOINT LeftHip
	{
		OFFSET 0.0316 -0.0424 -0.0458
		CHANNELS 3 Zrotation Xrotation Yrotation
		JOINT LeftKnee
		{
			OFFSET 0.00 -0.2438 0.00
			CHANNELS 1 Zrotation
			JOINT LeftAnkle
			{
				OFFSET 0.00 -0.2449 0.00
				CHANNELS 3 Zrotation Xrotation Yrotation
				End Site
				{
					OFFSET 0.1237 -0.0542 -0.0051
				}
			}
		}
	}
}
MOTION
Frames: 34
Frame Time: 0.02
0.34708 0.32791 0.07382 184.00963 0 -7.24301 2.83264 4.55123 -12.13641 -33.24914 9.56913 4.3409 2.94207 -65.48516 -15.51161 93.24824 114.11071 -30.38289 -7.76592 21.07078 8.36854 -36.10593 57.55759 -125.84683 -61.9831 7.88525 83.70803 -2.19889 -20.83939 -114.10482 7.12117 -1.05588 0.82056 82.92614 3.92902 0.62508 -99.38347 3.02167 -1.26004 -10.574
0.34691 0.32821 0.07381 184.15819 0 -7.26689 3.22697 4.33501 -12.35544 -33.76931 9.58679 4.23702 2.409 -66.03297 -17.94494 91.94313 113.72596 -29.99399 -7.7452 21.51131 8.31819 -35.8671 57.4433 -125.97784 -61.81376 7.91174 83.63388 -2.18677 -20.78809 -114.08977 7.17746 -1.09065 0.7536 82.92194 3.52422 0.35789 -99.31058 3.17106 -1.29016 -10.57338
0.34672 0.32855 0.07377 184.34368 0 -7.29533 3.64455 4.10591 -12.61467 -34.36934 9.58588 4.13611 2.09181 -66.53221 -20.18485 90.42613 113.30331 -29.57084 -7.72298 22.02429 8.27711 -35.6107 57.32571 -126.13786 -61.62313 7.94408 83.54194 -2.18764 -20.73417 -114.07287 7.24288 -1.1293 0.68035 82.92525 3.05804 0.05041 -99.18904 3.34823 -1.32613 -10.57287
0.34655 0.32887 0.07373 184.50744 0 -7.31881 4.0501 3.87704 -12.84754 -34.93141 9.59665 4.03821 1.65967 -67.05476 -22.52268 88.99649 112.88973 -29.15825 -7.70083 22.50598 8.22886 -35.37115 57.21255 -126.28266 -61.44302 7.97334 83.46437 -2.1724 -20.67294 -114.05617 7.29703 -1.16567 0.6099 82.92403 2.62535 -0.2294 -99.04598 3.5121 -1.35934 -10.57218
0.34634 0.32919 0.07372 184.69304 0 -7.35427 4.46291 3.67107 -13.11283 -35.50086 9.59524 3.92068 1.29923 -67.57057 -24.81731 87.59573 112.51988 -28.77036 -7.68264 22.98141 8.19227 -35.09463 57.08718 -126.43757 -61.25867 8.00466 83.35851 -2.20173 -20.64958 -114.04368 7.38483 -1.2047 0.5377 82.92821 2.16732 -0.55028 -99.08834 3.68555 -1.39412 -10.57202
0.3462 0.32953 0.07366 184.84097 0 -7.36618 4.86552 3.41515 -13.32092 -36.07383 9.6136 3.84579 0.8389 -68.08942 -27.15761 86.08748 112.0445 -28.322 -7.6549 23.48701 8.13381 -34.89005 56.9856 -126.57724 -61.07829 8.03289 83.30946 -2.13944 -20.54402 -114.02019 7.40036 -1.23848 0.47012 82.9219 1.74877 -0.79357 -98.73131 3.83759 -1.42564 -10.57081
0.34623 0.32992 0.07345 184.88253 0 -7.30935 5.2362 3.01875 -13.35966 -36.63556 9.69851 3.88081 0.07029 -68.62882 -29.6545 84.33909 111.30999 -27.70862 -7.60629 24.05529 8.01394 -34.89716 56.9605 -126.67384 -60.91483 8.05217 83.40442 -1.8369 -20.23571 -113.97896 7.25137 -1.26282 0.39407 82.89427 1.44698 -0.82554 -97.29959 3.99306 -1.45853 -10.56622
0.34632 0.33034 0.0732 184.88338 0 -7.22928 5.59505 2.57385 -13.33991 -37.19781 9.80247 3.95995 -0.80939 -69.17298 -32.20633 82.49026 110.4652 -27.03583 -7.54702 24.65139 7.87161 -34.97557 56.95777 -126.75286 -60.75609 8.06795 83.56072 -1.43864 -19.8403 -113.92253 7.02286 -1.28097 0.32583 82.85416 1.18884 -0.77572 -95.46636 4.11437 -1.48596 -10.56063
0.34638 0.33073 0.07298 184.89872 0 -7.16142 5.95832 2.15467 -13.34825 -37.76125 9.89268 4.02372 -1.65205 -69.7152 -34.74492 80.68556 109.65492 -26.39426 -7.48918 25.23708 7.73891 -35.01586 56.93829 -126.83574 -60.59474 8.08466 83.69982 -1.07391 -19.4694 -113.86747 6.8056 -1.29756 0.27065 82.81345 0.91524 -0.75473 -93.80403 4.20408 -1.50784 -10.55583
0.34645 0.33118 0.07271 184.93321 0 -7.08626 6.32764 1.71861 -13.3518 -38.32335 10.00365 4.06815 -2.43254 -70.25541 -37.23038 78.87969 108.90973 -25.73511 -7.44582 25.81775 7.60904 -35.08023 56.94623 -126.93694 -60.43445 8.10435 83.79189 -0.75214 -19.16234 -113.84354 6.69157 -1.3313 0.15059 82.79912 0.61973 -0.76985 -92.18153 4.48821 -1.56286 -10.54971
0.34653 0.33151 0.07253 184.91648 0 -7.02135 6.67976 1.3075 -13.35067 -38.88497 10.07625 4.16291 -3.36903 -70.80076 -39.83816 77.0552 108.00279 -25.09722 -7.36968 26.41218 7.46771 -35.11088 56.90275 -126.99563 -60.27354 8.11694 83.99839 -0.31747 -18.70127 -113.74139 6.34626 -1.32961 0.16075 82.72725 0.38261 -0.69044 -90.39052 4.36585 -1.5487 -10.54599
0.34658 0.33145 0.07258 184.7782 0 -6.98507 6.99948 0.96749 -13.35296 -39.46445 10.03752 4.38918 -4.73326 -71.36642 -42.80448 75.20552 106.68071 -24.5472 -7.20642 27.05694 7.30153 -35.03773 56.70955 -126.93932 -60.10874 8.11068 84.49218 0.40105 -17.84001 -113.50953 5.35832 -1.21574 0.58875 82.49585 0.28256 -0.36528 -88.15393 3.06931 -1.33415 -10.54994
0.34664 0.33127 0.07273 184.58775 0 -6.96085 7.2997 0.65622 -13.35202 -40.03915 9.9598 4.66393 -6.24735 -71.93595 -45.88645 73.34154 105.19964 -24.01837 -7.01044 27.71023 7.12452 -34.92738 56.46474 -126.8412 -59.9438 8.09743 85.10188 1.23049 -16.82654 -113.18333 4.14492 -1.06909 1.13734 82.20795 0.24241 0.05083 -85.7766 1.37587 -1.05209 -10.5562
0.34672 0.33115 0.07283 184.41446 0 -6.9346 7.60098 0.33808 -13.35094 -40.60327 9.90039 4.91429 -7.67794 -72.49928 -48.89417 71.48389 103.78779 -23.46998 -6.82884 28.3472 6.95129 -34.82923 56.24445 -126.76311 -59.77924 8.0874 85.66728 2.01256 -15.87967 -112.84709 3.04974 -0.94816 1.59002 81.94791 0.18423 0.42326 -83.51528 -0.09654 -0.80794 -10.56088
0.3467 0.33101 0.07294 184.26734 0 -6.89305 7.93562 -0.00823 -13.35441 -41.22233 9.83887 5.17619 -9.17676 -73.08172 -51.99579 69.62255 102.38227 -22.96007 -6.64871 29.03939 6.78123 -34.75185 56.01852 -126.67939 -59.61205 8.07693 86.1985 2.78638 -14.93865 -112.73668 1.88427 -0.78243 2.21235 81.67692 0.08947 0.81118 -81.01977 -1.74152 -0.53319 -10.56773
0.34689 0.33089 0.07305 184.05396 0 -6.88646 8.19528 -0.28801 -13.34867 -41.72451 9.77257 5.42494 -10.56827 -73.62492 -54.92793 67.7678 100.93052 -22.37752 -6.45816 29.6161 6.60337 -34.6234 55.7942 -126.59855 -59.45205 8.06591 86.82884 3.60089 -13.95292 -112.12998 0.81395 -0.70093 2.51507 81.41713 0.08362 1.18391 -78.98438 -3.12119 -0.3061 -10.57066
0.34764 0.33089 0.07314 183.6696 0 -6.97414 8.26127 -0.39413 -13.31609 -41.91589 9.69975 5.62568 -11.61861 -74.0607 -57.36775 65.92878 99.36338 -21.57539 -6.24489 29.88991 6.39743 -34.34576 55.56569 -126.5285 -59.29627 8.05379 87.69416 4.51341 -12.86254 -110.20796 0.05145 -0.87197 1.86017 81.18802 0.31669 1.52185 -78.25243 -3.66797 -0.22809 -10.56191
0.3486 0.33092 0.07324 183.22071 0 -7.0966 8.25094 -0.43335 -13.27495 -41.98781 9.6239 5.81124 -12.55512 -74.45602 -59.63081 64.09952 97.7614 -20.70276 -6.02283 30.04386 6.18584 -34.02081 55.3442 -126.46416 -59.15046 8.04159 88.65685 5.45985 -11.7381 -107.78434 -0.60506 -1.12682 0.88733 80.9748 0.6354 1.83555 -77.99101 -3.93439 -0.20021 -10.54915
0.34947 0.33094 0.07333 182.80212 0 -7.20276 8.26993 -0.50117 -13.23961 -42.10729 9.55118 6.00344 -13.55069 -74.86919 -61.97342 62.26898 96.19256 -19.87116 -5.80592 30.24048 5.98298 -33.72853 55.13363 -126.40222 -59.01059 8.03028 89.58146 6.38231 -10.63947 -105.56882 -1.30335 -1.33535 0.09066 80.76362 0.90949 2.14052 -77.51685 -4.3312 -0.14874 -10.5385
0.35033 0.33097 0.07342 182.37763 0 -7.3113 8.31078 -0.57621 -13.1965 -42.25488 9.46966 6.19853 -14.52744 -75.28665 -64.32829 60.42049 94.54232 -19.00039 -5.58237 30.48652 5.75374 -33.38802 54.86268 -126.31807 -58.82727 8.01516 90.48416 7.3462 -9.48443 -103.43177 -2.03729 -1.57704 -0.83309 80.51146 1.21 2.53168 -77.03168 -4.72965 -0.0983 -10.52694
0.35125 0.33097 0.07352 181.95071 0 -7.42314 8.28836 -0.62 -13.16704 -42.31576 9.40634 6.38328 -15.50582 -75.68314 -66.60801 58.61701 93.05885 -18.1966 -5.37174 30.60193 5.57821 -33.13696 54.71857 -126.28166 -58.73589 8.00799 91.45405 8.22871 -8.45008 -101.01594 -2.66788 -1.77053 -1.57232 80.34906 1.47474 2.73686 -76.68458 -5.05248 -0.05855 -10.516
0.3523 0.33093 0.07367 181.53458 0 -7.534 8.10868 -0.59965 -13.18242 -42.1649 9.39333 6.54347 -16.59034 -76.05135 -68.77283 56.89418 92.01473 -17.57531 -5.19242 30.37804 5.55297 -33.14701 54.9344 -126.37969 -58.90398 8.02356 92.58516 8.89153 -7.67959 -97.93341 -3.04552 -1.80579 -1.69782 80.43181 1.62083 2.42894 -76.59193 -5.2366 -0.03606 -10.50988
0.3534 0.33086 0.07383 181.11861 0 -7.64708 7.86816 -0.54926 -13.21114 -41.93099 9.39901 6.69332 -17.66682 -76.39571 -70.85677 55.22555 91.14493 -17.0281 -5.02751 30.02806 5.58202 -33.24854 55.27598 -126.52518 -59.16273 8.04708 93.77978 9.46803 -7.04747 -94.59333 -3.31998 -1.79064 -1.63187 80.60421 1.72676 1.93492 -76.62469 -5.35189 -0.02294 -10.50387
0.35445 0.33079 0.07398 180.70122 0 -7.76034 7.65657 -0.50889 -13.23018 -41.73639 9.39683 6.84769 -18.69668 -76.7386 -72.94672 53.55737 90.21696 -16.45896 -4.86087 29.74124 5.58579 -33.30655 55.55249 -126.64627 -59.37473 8.06646 94.94538 10.07497 -6.40317 -91.38252 -3.63689 -1.80178 -1.67193 80.73536 1.85093 1.52967 -76.60873 -5.49585 -0.0059 -10.49669
0.35559 0.33075 0.07413 180.28553 0 -7.87043 7.43745 -0.4813 -13.26327 -41.53184 9.39204 7.003 -19.93115 -77.13388 -75.16671 51.7776 89.2032 -15.83513 -4.67482 29.42637 5.59158 -33.37061 55.86176 -126.77878 -59.6106 8.0879 96.11614 10.72104 -5.54169 -88.09613 -3.97098 -1.80164 -1.64412 80.87006 1.98102 1.10731 -76.5751 -5.64181 0.01081 -10.49506
0.35656 0.33066 0.07429 179.8693 0 -7.98641 7.21987 -0.42108 -13.27152 -41.32877 9.39692 7.15322 -20.74371 -77.41259 -77.09102 50.25056 88.40447 -15.34711 -4.53112 29.14049 5.60653 -33.44502 56.13369 -126.8996 -59.81804 8.10714 97.28866 11.2637 -5.16821 -84.92059 -4.24366 -1.8118 -1.70639 81.01735 2.08456 0.67496 -76.60076 -5.77024 0.0267 -10.48076
0.35703 0.3304 0.07448 179.4338 0 -8.12471 7.02779 -0.27608 -13.19787 -41.15978 9.4259 7.29918 -20.34996 -77.39461 -78.28329 49.34621 88.20723 -15.1865 -4.51537 28.97437 5.63067 -33.52072 56.26343 -126.96847 -59.92497 8.11647 98.4605 11.54943 -6.09013 -82.04957 -4.3935 -1.86339 -2.07651 81.18703 2.15455 0.27512 -76.768 -5.87329 0.04228 -10.44161
0.35733 0.33009 0.07469 179.00136 0 -8.26754 6.83857 -0.09979 -13.10055 -40.99377 9.46348 7.439 -19.53857 -77.25642 -79.16739 48.70738 88.21271 -15.16518 -4.53947 28.84024 5.6631 -33.60482 56.35366 -127.02516 -59.99959 8.1236 99.62917 11.73251 -7.50241 -79.31473 -4.48181 -1.92645 -2.53943 81.36452 2.1933 -0.13108 -76.98677 -5.96138 0.0577 -10.38775
0.3577 0.32981 0.07489 178.57957 0 -8.40372 6.64428 0.06028 -13.02083 -40.82089 9.49596 7.57708 -18.94974 -77.1612 -80.15388 47.98563 88.09063 -15.10063 -4.53534 28.68684 5.69308 -33.68855 56.46622 -127.09301 -60.08946 8.13303 100.79274 11.95747 -8.70185 -76.56101 -4.58442 -1.98355 -2.951 81.53199 2.22611 -0.54366 -77.17381 -6.05356 0.07364 -10.33409
0.35807 0.32951 0.07507 178.10712 0 -8.55905 6.46376 0.22912 -12.91317 -40.66905 9.53459 7.73431 -18.23021 -77.11568 -81.30551 47.10017 88.11794 -14.95671 -4.57279 28.55088 5.71774 -33.76095 56.56098 -127.1398 -60.18208 8.13744 101.98782 12.1995 -9.86214 -73.61176 -4.74013 -2.04251 -3.39725 81.72958 2.34206 -0.92313 -77.40008 -6.15429 0.08723 -10.30816
0.35841 0.32925 0.0753 177.74067 0 -8.67594 6.25601 0.3877 -12.85729 -40.47424 9.56162 7.84985 -17.67387 -76.93675 -82.02968 46.62586 87.8878 -15.00667 -4.53497 28.38543 5.75681 -33.85768 56.68649 -127.22563 -60.25762 8.15145 103.11363 12.38281 -11.22077 -71.11135 -4.77313 -2.10047 -3.79273 81.86553 2.2786 -1.37124 -77.55587 -6.23497 0.10592 -10.22057
0.3587 0.3291 0.07565 177.66872 0 -8.68182 5.97314 0.50155 -12.95541 -40.16924 9.55932 7.85589 -17.75438 -76.43278 -81.74379 47.15823 86.82926 -15.58938 -4.26196 28.15294 5.81616 -34.01972 56.8677 -127.43194 -60.31289 8.19436 104.06522 12.42862 -12.98753 -69.77099 -4.47323 -2.15727 -4.05287 81.82519 1.72168 -2.00065 -77.49705 -6.26139 0.13788 -9.97003
0.35897 0.329 0.07603 177.70301 0 -8.64943 5.66316 0.60543 -13.10532 -39.81994 9.54397 7.81943 -17.99696 -75.79609 -81.01938 48.10874 85.51653 -16.35685 -3.91505 27.88657 5.89312 -34.20532 57.08923 -127.67484 -60.34671 8.2465 104.94343 12.41949 -14.93922 -68.88846 -4.05428 -2.21219 -4.2553 81.72283 0.98672 -2.69873 -77.36616 -6.26897 0.17515 -9.65744
0.35926 0.32889 0.07639 177.68684 0 -8.63715 5.36512 0.7195 -13.22815 -39.48488 9.5314 7.79985 -18.11143 -75.2113 -80.43602 48.90684 84.36366 -17.01789 -3.61346 27.62132 5.97266 -34.3798 57.31546 -127.89574 -60.37922 8.29332 105.84472 12.43617 -16.81931 -67.8268 -3.69624 -2.26522 -4.46603 81.65118 0.33695 -3.36944 -77.27245 -6.28726 0.21063 -9.37062
